<svg xmlns="http://www.w3.org/2000/svg" xmlns:xlink="http://www.w3.org/1999/xlink" width="840" height="191.97"><rect width="840" height="191.97" rx="0" ry="0" class="a"></rect><svg height="151.97" viewBox="0 0 80 15.197" width="800" x="20" xmlns="http://www.w3.org/2000/svg" xmlns:xlink="http://www.w3.org/1999/xlink" y="20"><style>.a{fill:rgb(40,45,53)}.b{font-family:'Fira Code',Monaco,Consolas,Menlo,'Bitstream Vera Sans Mono','Powerline Symbols',monospace}.c{fill:transparent}.d{fill:rgb(185,192,203);white-space:pre}</style><g font-family="&#x27;Fira Code&#x27;,Monaco,Consolas,Menlo,&#x27;Bitstream Vera Sans Mono&#x27;,&#x27;Powerline Symbols&#x27;,monospace" font-size="1.67" class="b"><defs><symbol id="a"><rect height="7" width="80" x="0" y="0" class="c"></rect></symbol></defs><rect height="15.197" width="80" class="a"></rect><svg x="0" y="0" width="80"><svg x="0"><use xlink:href="#a"></use><text font-size="1.67" x="0" y="1.67" class="d">&gt;</text><text font-size="1.67" x="2.004" y="1.67" class="d">send_cli_threat</text><text font-size="1.67" x="18.035999999999998" y="1.67" class="d">&lt;-</text><text font-size="1.67" x="21.041999999999998" y="1.67" class="d">function()</text><text font-size="1.67" x="32.064" y="1.67" class="d">{</text><text font-size="1.67" x="0" y="3.8409999999999997" class="d">+</text><text font-size="1.67" x="4.008" y="3.8409999999999997" class="d">cli_text(&quot;Dead</text><text font-size="1.67" x="19.037999999999997" y="3.8409999999999997" class="d">girls</text><text font-size="1.67" x="25.05" y="3.8409999999999997" class="d">walking.&quot;);</text><text font-size="1.67" x="37.074" y="3.8409999999999997" class="d">wait()</text><text font-size="1.67" x="0" y="6.012" class="d">+</text><text font-size="1.67" x="4.008" y="6.012" class="d">cli_text(&quot;--A.&quot;)</text><text font-size="1.67" x="0" y="8.183" class="d">+</text><text font-size="1.67" x="2.004" y="8.183" class="d">}</text><text font-size="1.67" x="0" y="10.354" class="d">&gt;</text><text font-size="1.67" x="2.004" y="10.354" class="d">send_cli_threat()</text><text font-size="1.67" x="0" y="12.525" class="d">Erreur</text><text font-size="1.67" x="7.013999999999999" y="12.525" class="d">dans</text><text font-size="1.67" x="12.024" y="12.525" class="d">cli_text(&quot;Dead</text><text font-size="1.67" x="27.054" y="12.525" class="d">girls</text><text font-size="1.67" x="33.065999999999995" y="12.525" class="d">walking.&quot;)</text><text font-size="1.67" x="44.087999999999994" y="12.525" class="d">:</text><text font-size="1.67" x="2.004" y="14.696" class="d">impossible</text><text font-size="1.67" x="13.026" y="14.696" class="d">de</text><text font-size="1.67" x="16.032" y="14.696" class="d">trouver</text><text font-size="1.67" x="24.048" y="14.696" class="d">la</text><text font-size="1.67" x="27.054" y="14.696" class="d">fonction</text><text font-size="1.67" x="36.071999999999996" y="14.696" class="d">&quot;cli_text&quot;</text></svg></svg></g></svg></svg>